<svg id="&#x421;&#x43B;&#x43E;&#x439;_1" enable-background="new 0 0 12 12" viewBox="0 0 12 12" xmlns="http://www.w3.org/2000/svg"><g fill="rgb(0,0,0)"><path d="m11.765625 9.2348633-1.6401978-1.6401978c.461792-.5774536.7495728-1.2995605.7495728-2.0946655 0-1.8608398-1.5136719-3.375-3.375-3.375s-3.375 1.5141602-3.375 3.375 1.5136719 3.375 3.375 3.375c.7952271 0 1.5172729-.2878418 2.0946655-.7495728l1.6397095 1.6397095c.0732422.0732422.1699219.1098633.265625.1098633s.1923828-.0366211.265625-.1098633c.1455078-.1464844.1455078-.383789 0-.5302734zm-6.890625-3.7348633c0-1.4472656 1.1777344-2.625 2.625-2.625s2.625 1.1777344 2.625 2.625-1.1777344 2.625-2.625 2.625-2.625-1.1777344-2.625-2.625z"/><path d="m3.5 2.125h-3c-.2070313 0-.375.1679688-.375.375s.1679688.375.375.375h3c.2070313 0 .375-.1679688.375-.375s-.1679687-.375-.375-.375z"/><path d="m.5 5.875h2c.2070313 0 .375-.1679688.375-.375s-.1679687-.375-.375-.375h-2c-.2070313 0-.375.1679688-.375.375s.1679688.375.375.375z"/><path d="m3.5 8.125h-3c-.2070313 0-.375.1679688-.375.375s.1679688.375.375.375h3c.2070313 0 .375-.1679688.375-.375s-.1679687-.375-.375-.375z"/></g></svg>